<?xml version="1.0" standalone="no"?>
<!DOCTYPE svg PUBLIC "-//W3C//DTD SVG 20010904//EN"
 "http://www.w3.org/TR/2001/REC-SVG-20010904/DTD/svg10.dtd">
<svg version="1.0" xmlns="http://www.w3.org/2000/svg"
 width="206.000000pt" height="58.000000pt" viewBox="0 0 206.000000 58.000000"
 preserveAspectRatio="xMidYMid meet">
<metadata>
Created by potrace 1.10, written by Peter Selinger 2001-2011
</metadata>
<g transform="translate(0.000000,58.000000) scale(0.100000,-0.100000)"
fill="#000000" stroke="none">
<path d="M801 413 c-23 -91 -34 -194 -23 -218 31 -67 152 19 152 107 0 55 -40
62 -87 16 -37 -36 -39 -33 -18 36 19 63 19 96 0 96 -8 0 -18 -16 -24 -37z m99
-115 c0 -7 -9 -27 -20 -45 -38 -63 -98 -68 -66 -5 24 47 86 83 86 50z"/>
<path d="M991 404 c-6 -21 -16 -82 -23 -136 -13 -103 -7 -127 26 -115 13 5 15
15 10 46 -4 23 1 73 11 122 23 110 23 113 3 117 -12 2 -20 -7 -27 -34z"/>
<path d="M537 424 c-4 -4 -7 -16 -7 -26 0 -14 6 -19 23 -16 14 2 22 10 22 23
0 20 -25 32 -38 19z"/>
<path d="M303 393 c-41 -14 -56 -37 -31 -45 9 -3 9 -25 -1 -92 -14 -90 -12
-102 12 -93 9 3 18 36 26 99 13 101 23 118 74 118 42 0 33 -39 -15 -65 -49
-26 -51 -50 -4 -41 23 4 37 2 45 -8 23 -27 -18 -69 -74 -78 -11 -2 -20 -10
-20 -18 0 -11 9 -14 33 -12 42 3 79 27 98 64 14 27 14 32 -1 54 -8 13 -21 24
-27 24 -7 0 0 13 15 28 33 34 34 46 5 66 -28 20 -79 19 -135 -1z"/>
<path d="M1442 364 c-15 -26 -44 -73 -64 -106 -21 -32 -38 -65 -38 -73 0 -26
30 -16 48 14 12 21 26 31 53 35 21 3 44 9 53 12 10 4 19 -4 29 -28 16 -38 42
-63 57 -53 14 9 12 26 -6 46 -19 21 -74 154 -74 180 0 34 -30 20 -58 -27z m41
-41 c2 -10 8 -25 12 -35 5 -12 -1 -18 -25 -23 -17 -4 -34 -5 -36 -2 -6 6 28
77 37 77 4 0 9 -8 12 -17z"/>
<path d="M1653 398 c-6 -7 -16 -57 -23 -111 -13 -103 -8 -126 25 -113 12 4 14
14 10 38 -4 18 1 66 9 107 9 41 13 78 10 82 -7 13 -20 11 -31 -3z"/>
<path d="M1085 317 c-28 -28 -35 -43 -35 -75 0 -73 60 -96 119 -46 50 41 34
64 -16 24 -14 -11 -34 -20 -44 -20 -31 0 -22 25 16 43 70 33 83 98 21 105 -20
3 -36 -6 -61 -31z m65 -9 c0 -16 -31 -48 -47 -48 -17 0 -17 10 3 38 16 23 44
30 44 10z"/>
<path d="M501 260 c-13 -84 -9 -103 17 -98 12 2 17 15 17 48 1 25 5 64 9 88 8
38 7 42 -11 42 -17 0 -21 -11 -32 -80z"/>
<path d="M607 333 c-4 -3 -7 -44 -7 -90 0 -74 2 -84 17 -81 10 2 21 18 26 38
5 19 20 50 33 68 20 26 30 31 50 26 20 -5 24 -2 24 14 0 51 -59 38 -95 -21
l-26 -42 7 48 c5 37 3 47 -8 47 -8 0 -18 -3 -21 -7z"/>
</g>
</svg>
